<mxfile host="65bd71144e" modified="2021-01-12T18:20:11.991Z" agent="5.0 (Windows NT 10.0; Win64; x64) AppleWebKit/537.36 (KHTML, like Gecko) Code/1.52.1 Chrome/83.0.4103.122 Electron/9.3.5 Safari/537.36" etag="kFwHyPy2PTFmkh2rFqu-" version="13.10.0" type="embed">
    <diagram id="2LbESuUhRv7emfAW9sft" name="Page-1">
        <mxGraphModel dx="804" dy="478" grid="1" gridSize="10" guides="1" tooltips="1" connect="1" arrows="1" fold="1" page="1" pageScale="1" pageWidth="850" pageHeight="1100" math="0" shadow="0">
            <root>
                <mxCell id="0"/>
                <mxCell id="1" parent="0"/>
                <mxCell id="w4-q0xeYVS4qOGAkazt8-2" value="Dice Roller" style="rounded=0;whiteSpace=wrap;html=1;" parent="1" vertex="1">
                    <mxGeometry x="20" y="430" width="90" height="40" as="geometry"/>
                </mxCell>
                <mxCell id="w4-q0xeYVS4qOGAkazt8-3" value="Music Player" style="rounded=0;whiteSpace=wrap;html=1;" parent="1" vertex="1">
                    <mxGeometry x="640" y="490" width="80" height="40" as="geometry"/>
                </mxCell>
                <mxCell id="w4-q0xeYVS4qOGAkazt8-14" style="edgeStyle=orthogonalEdgeStyle;rounded=0;orthogonalLoop=1;jettySize=auto;html=1;entryX=1;entryY=0.5;entryDx=0;entryDy=0;" parent="1" source="w4-q0xeYVS4qOGAkazt8-6" target="w4-q0xeYVS4qOGAkazt8-10" edge="1">
                    <mxGeometry relative="1" as="geometry">
                        <Array as="points">
                            <mxPoint x="380" y="320"/>
                            <mxPoint x="320" y="320"/>
                            <mxPoint x="320" y="250"/>
                        </Array>
                    </mxGeometry>
                </mxCell>
                <mxCell id="w4-q0xeYVS4qOGAkazt8-43" style="edgeStyle=orthogonalEdgeStyle;rounded=0;orthogonalLoop=1;jettySize=auto;html=1;entryX=0.5;entryY=1;entryDx=0;entryDy=0;" parent="1" source="w4-q0xeYVS4qOGAkazt8-6" target="w4-q0xeYVS4qOGAkazt8-7" edge="1">
                    <mxGeometry relative="1" as="geometry"/>
                </mxCell>
                <mxCell id="w4-q0xeYVS4qOGAkazt8-6" value="Games" style="rounded=0;whiteSpace=wrap;html=1;" parent="1" vertex="1">
                    <mxGeometry x="360" y="410" width="120" height="60" as="geometry"/>
                </mxCell>
                <mxCell id="w4-q0xeYVS4qOGAkazt8-12" style="edgeStyle=orthogonalEdgeStyle;rounded=0;orthogonalLoop=1;jettySize=auto;html=1;entryX=0.5;entryY=1;entryDx=0;entryDy=0;" parent="1" source="w4-q0xeYVS4qOGAkazt8-7" target="w4-q0xeYVS4qOGAkazt8-10" edge="1">
                    <mxGeometry relative="1" as="geometry"/>
                </mxCell>
                <mxCell id="3" style="edgeStyle=orthogonalEdgeStyle;rounded=0;orthogonalLoop=1;jettySize=auto;html=1;entryX=1;entryY=0.5;entryDx=0;entryDy=0;" edge="1" parent="1" source="w4-q0xeYVS4qOGAkazt8-7" target="w4-q0xeYVS4qOGAkazt8-2">
                    <mxGeometry relative="1" as="geometry"/>
                </mxCell>
                <mxCell id="w4-q0xeYVS4qOGAkazt8-7" value="Character Sheets" style="rounded=0;whiteSpace=wrap;html=1;" parent="1" vertex="1">
                    <mxGeometry x="160" y="410" width="120" height="60" as="geometry"/>
                </mxCell>
                <mxCell id="w4-q0xeYVS4qOGAkazt8-10" value="Users" style="rounded=0;whiteSpace=wrap;html=1;" parent="1" vertex="1">
                    <mxGeometry x="160" y="220" width="120" height="60" as="geometry"/>
                </mxCell>
                <mxCell id="w4-q0xeYVS4qOGAkazt8-31" style="edgeStyle=orthogonalEdgeStyle;rounded=0;orthogonalLoop=1;jettySize=auto;html=1;entryX=1;entryY=0.25;entryDx=0;entryDy=0;" parent="1" source="w4-q0xeYVS4qOGAkazt8-11" target="w4-q0xeYVS4qOGAkazt8-6" edge="1">
                    <mxGeometry relative="1" as="geometry">
                        <Array as="points">
                            <mxPoint x="530" y="250"/>
                            <mxPoint x="530" y="425"/>
                        </Array>
                    </mxGeometry>
                </mxCell>
                <mxCell id="w4-q0xeYVS4qOGAkazt8-35" style="edgeStyle=orthogonalEdgeStyle;rounded=0;orthogonalLoop=1;jettySize=auto;html=1;" parent="1" source="w4-q0xeYVS4qOGAkazt8-11" target="w4-q0xeYVS4qOGAkazt8-29" edge="1">
                    <mxGeometry relative="1" as="geometry">
                        <Array as="points">
                            <mxPoint x="420" y="180"/>
                            <mxPoint x="670" y="180"/>
                        </Array>
                    </mxGeometry>
                </mxCell>
                <mxCell id="w4-q0xeYVS4qOGAkazt8-46" style="edgeStyle=orthogonalEdgeStyle;rounded=0;orthogonalLoop=1;jettySize=auto;html=1;entryX=0.5;entryY=1;entryDx=0;entryDy=0;" parent="1" source="w4-q0xeYVS4qOGAkazt8-11" target="w4-q0xeYVS4qOGAkazt8-44" edge="1">
                    <mxGeometry relative="1" as="geometry"/>
                </mxCell>
                <mxCell id="w4-q0xeYVS4qOGAkazt8-11" value="Servers" style="rounded=0;whiteSpace=wrap;html=1;" parent="1" vertex="1">
                    <mxGeometry x="360" y="220" width="120" height="60" as="geometry"/>
                </mxCell>
                <mxCell id="w4-q0xeYVS4qOGAkazt8-13" value="Belongs to" style="text;html=1;strokeColor=none;fillColor=none;align=center;verticalAlign=middle;whiteSpace=wrap;rounded=0;" parent="1" vertex="1">
                    <mxGeometry x="150" y="330" width="60" height="20" as="geometry"/>
                </mxCell>
                <mxCell id="w4-q0xeYVS4qOGAkazt8-15" value="Have one GM" style="text;html=1;strokeColor=none;fillColor=none;align=center;verticalAlign=middle;whiteSpace=wrap;rounded=0;" parent="1" vertex="1">
                    <mxGeometry x="330" y="330" width="50" height="20" as="geometry"/>
                </mxCell>
                <mxCell id="w4-q0xeYVS4qOGAkazt8-22" value="Have many" style="text;html=1;strokeColor=none;fillColor=none;align=center;verticalAlign=middle;whiteSpace=wrap;rounded=0;" parent="1" vertex="1">
                    <mxGeometry x="280" y="420" width="90" height="20" as="geometry"/>
                </mxCell>
                <mxCell id="w4-q0xeYVS4qOGAkazt8-26" value="Have many" style="text;html=1;strokeColor=none;fillColor=none;align=center;verticalAlign=middle;whiteSpace=wrap;rounded=0;" parent="1" vertex="1">
                    <mxGeometry x="480" y="220" width="60" height="20" as="geometry"/>
                </mxCell>
                <mxCell id="w4-q0xeYVS4qOGAkazt8-38" style="edgeStyle=orthogonalEdgeStyle;rounded=0;orthogonalLoop=1;jettySize=auto;html=1;entryX=1;entryY=0.75;entryDx=0;entryDy=0;" parent="1" source="w4-q0xeYVS4qOGAkazt8-29" target="w4-q0xeYVS4qOGAkazt8-6" edge="1">
                    <mxGeometry relative="1" as="geometry">
                        <Array as="points">
                            <mxPoint x="590" y="340"/>
                            <mxPoint x="590" y="455"/>
                        </Array>
                    </mxGeometry>
                </mxCell>
                <mxCell id="w4-q0xeYVS4qOGAkazt8-29" value="Calendar" style="rounded=0;whiteSpace=wrap;html=1;" parent="1" vertex="1">
                    <mxGeometry x="610" y="310" width="120" height="60" as="geometry"/>
                </mxCell>
                <mxCell id="w4-q0xeYVS4qOGAkazt8-36" value="Have one" style="text;html=1;strokeColor=none;fillColor=none;align=center;verticalAlign=middle;whiteSpace=wrap;rounded=0;" parent="1" vertex="1">
                    <mxGeometry x="360" y="190" width="60" height="20" as="geometry"/>
                </mxCell>
                <mxCell id="w4-q0xeYVS4qOGAkazt8-39" value="Schedule many" style="text;html=1;strokeColor=none;fillColor=none;align=center;verticalAlign=middle;whiteSpace=wrap;rounded=0;" parent="1" vertex="1">
                    <mxGeometry x="590" y="400" width="60" height="20" as="geometry"/>
                </mxCell>
                <mxCell id="w4-q0xeYVS4qOGAkazt8-44" value="Config" style="rounded=0;whiteSpace=wrap;html=1;" parent="1" vertex="1">
                    <mxGeometry x="360" y="50" width="120" height="60" as="geometry"/>
                </mxCell>
                <mxCell id="sqYL6eQrPugjWnCz3RB1-14" value="Permissions?" style="ellipse;whiteSpace=wrap;html=1;" parent="1" vertex="1">
                    <mxGeometry x="160" y="50" width="90" height="50" as="geometry"/>
                </mxCell>
                <mxCell id="sqYL6eQrPugjWnCz3RB1-15" value="Macros?" style="ellipse;whiteSpace=wrap;html=1;" parent="1" vertex="1">
                    <mxGeometry x="60" y="50" width="90" height="50" as="geometry"/>
                </mxCell>
                <mxCell id="sqYL6eQrPugjWnCz3RB1-16" value="Auth?" style="ellipse;whiteSpace=wrap;html=1;" parent="1" vertex="1">
                    <mxGeometry x="60" y="110" width="90" height="50" as="geometry"/>
                </mxCell>
            </root>
        </mxGraphModel>
    </diagram>
</mxfile>